<?xml version="1.0" encoding="utf-8"?>
<!-- Generator: Adobe Illustrator 20.0.0, SVG Export Plug-In . SVG Version: 6.00 Build 0)  -->
<svg version="1.1" id="Layer_1" xmlns="http://www.w3.org/2000/svg" xmlns:xlink="http://www.w3.org/1999/xlink" x="0px" y="0px"
	 viewBox="0 0 25.2 13.1" style="enable-background:new 0 0 25.2 13.1;" xml:space="preserve">
<style type="text/css">
	.st0{fill:#F9F9FA;}
</style>
<path class="st0" d="M17.5,9.6c-0.9-0.1-2-0.2-3.2-0.5l-2.3,4h3.6L17.5,9.6L17.5,9.6z"/>
<path class="st0" d="M20.9,8.3c0.9,0.1,2.3,0.3,3.2,0.3L23.1,0h-3.6l-4.3,7.7c1,0.3,2.1,0.5,3.1,0.6L20.5,4L20.9,8.3z"/>
<path class="st0" d="M24.1,8.7c-0.8,0.2-2.3,0.5-3.2,0.6l0.3,3.8h3.4L24.1,8.7z"/>
<path class="st0" d="M16.8,1.3c-0.5,0-1.3-0.1-1.8-0.1c-2.7,0-6.9,0.5-6.9,2.3c0,2.9,9.1,5.2,14.6,5.2c0.3,0,1.1,0,1.4-0.1
	c-3.5-0.3-11.7-2.5-11.7-5.1C12.4,2.1,14.7,1.5,16.8,1.3"/>
<path class="st0" d="M9.1,1.3c-0.5,0-1.2-0.1-1.8-0.1c-3,0-6.9,0.9-6.9,2.8c0,3.5,8.8,5.8,15,5.8c0.3,0,1.7-0.1,2-0.1
	C13.3,9.2,4.7,7,4.7,3.8C4.7,2.1,6.7,1.5,9.1,1.3"/>
</svg>
