<?xml version="1.0" encoding="utf-8"?>
<!-- Generator: Adobe Illustrator 20.0.0, SVG Export Plug-In . SVG Version: 6.00 Build 0)  -->
<svg version="1.1" id="filter" xmlns="http://www.w3.org/2000/svg" xmlns:xlink="http://www.w3.org/1999/xlink" x="0px" y="0px"
	 viewBox="0 0 24 24" style="enable-background:new 0 0 24 24;" xml:space="preserve">
<style type="text/css">
	.st0{fill:#778D9E;}
</style>
<path class="st0" d="M12,0C5.4,0,0,1.5,0,3.4c0,3.4,10.3,12,10.3,12v1.7v5.1v0.9c0,0.5,0.4,0.9,0.9,0.9h1.7c0.5,0,0.9-0.4,0.9-0.9
	v-0.9v-5.1v-1.7c0,0,10.3-8.6,10.3-12C24,1.5,18.6,0,12,0z M12,6C5.8,6,0.9,4.8,0.9,3.4s5-2.6,11.1-2.6S23.1,2,23.1,3.4S18.2,6,12,6
	z"/>
<path class="st0" d="M23.2,19.4c-1.2,1.2-2.3,2.3-3.2,3.2c-1.1-1.1-2.1-2.1-3.2-3.2C18.8,19.4,20.9,19.4,23.2,19.4z"/>
</svg>
