<?xml version="1.0" encoding="utf-8"?>
<!-- Generator: Adobe Illustrator 20.0.0, SVG Export Plug-In . SVG Version: 6.00 Build 0)  -->
<svg version="1.1" id="skeletonkey" xmlns="http://www.w3.org/2000/svg" xmlns:xlink="http://www.w3.org/1999/xlink" x="0px"
	 y="0px" viewBox="0 0 24 24" style="enable-background:new 0 0 24 24;" xml:space="preserve">
<style type="text/css">
	.st0{fill:none;stroke:#778D9E;stroke-miterlimit:10;}
</style>
<path class="st0" d="M16.4,0.5c-3.4,0-6.2,2.8-6.2,6.2c0,1.3,0.4,2.5,1.1,3.5l-9.6,9.6c-0.4,0.4-0.4,1.1,0,1.5
	c0.2,0.2,0.5,0.3,0.8,0.3s0.6-0.1,0.8-0.3l0.5-0.5l2.3,2.3c0.2,0.2,0.5,0.3,0.8,0.3c0.3,0,0.6-0.1,0.8-0.3c0.4-0.4,0.4-1.1,0-1.5
	l-2.3-2.3l1.2-1.2l2.3,2.3c0.2,0.2,0.5,0.3,0.8,0.3c0.3,0,0.6-0.1,0.8-0.3c0.4-0.4,0.4-1.1,0-1.5l-2.3-2.3l4.7-4.7
	c1,0.7,2.2,1.1,3.5,1.1c3.4,0,6.2-2.8,6.2-6.2S19.8,0.5,16.4,0.5z M16.4,10.7c-2.2,0-4-1.8-4-4s1.8-4,4-4s4,1.8,4,4
	S18.6,10.7,16.4,10.7z"/>
</svg>
