<?xml version="1.0" encoding="utf-8"?>
<!-- Generator: Adobe Illustrator 20.0.0, SVG Export Plug-In . SVG Version: 6.00 Build 0)  -->
<svg version="1.1" id="search" xmlns="http://www.w3.org/2000/svg" xmlns:xlink="http://www.w3.org/1999/xlink" x="0px" y="0px"
	 viewBox="0 0 24 24" style="enable-background:new 0 0 24 24;" xml:space="preserve">
<style type="text/css">
	.st0{fill:#778D9E;}
</style>
<path class="st0" d="M23.4,22.7l-6.5-6.5c1.5-1.7,2.5-3.9,2.5-6.4c0-5.2-4.2-9.4-9.4-9.4S0.5,4.7,0.5,9.9s4.2,9.4,9.4,9.4
	c2.5,0,4.7-1,6.4-2.5l6.5,6.5c0.2,0.2,0.4,0.2,0.6,0C23.5,23.2,23.5,22.9,23.4,22.7z M10,18.5c-4.8,0-8.6-3.8-8.6-8.6
	S5.2,1.3,10,1.3s8.6,3.8,8.6,8.6S14.7,18.5,10,18.5z"/>
</svg>
