<?xml version="1.0" encoding="utf-8"?>
<!-- Generator: Adobe Illustrator 20.0.0, SVG Export Plug-In . SVG Version: 6.00 Build 0)  -->
<svg version="1.1" id="trash" xmlns="http://www.w3.org/2000/svg" xmlns:xlink="http://www.w3.org/1999/xlink" x="0px" y="0px"
	 viewBox="0 0 24 24" style="enable-background:new 0 0 24 24;" xml:space="preserve">
<style type="text/css">
	.st0{fill:#778D9E;}
</style>
<path class="st0" d="M8.1,5.1c-0.2,0-0.4,0.2-0.4,0.5L8.6,21c0,0.2,0.2,0.4,0.5,0.4s0.4-0.2,0.4-0.5L8.6,5.5
	C8.6,5.3,8.4,5.1,8.1,5.1z M12,5.1c-0.2,0-0.4,0.2-0.4,0.4V21c0,0.2,0.2,0.4,0.4,0.4c0.2,0,0.4-0.2,0.4-0.4V5.6
	C12.4,5.3,12.2,5.1,12,5.1z M20.6,2.6h-4.7V1.7c0-0.9-0.8-1.7-1.7-1.7H9.9C8.9,0,8.1,0.8,8.1,1.7v0.9H3.4C3.2,2.6,3,2.8,3,3
	c0,0.2,0.2,0.4,0.4,0.4h0.4l1.7,18.9c0,0.9,0.8,1.7,1.7,1.7h9.4c0.9,0,1.7-0.8,1.7-1.7l1.7-18.9h0.4C20.8,3.4,21,3.2,21,3
	C21,2.8,20.8,2.6,20.6,2.6z M9,1.7c0-0.5,0.4-0.9,0.9-0.9h4.3c0.5,0,0.9,0.4,0.9,0.9v0.9H9V1.7z M17.6,22.3c0,0.5-0.4,0.9-0.9,0.9
	H7.3c-0.5,0-0.9-0.4-0.9-0.9L4.7,3.4h3.4H9h6h0.9h3.4L17.6,22.3z M15.4,5.6L14.6,21c0,0.2,0.2,0.4,0.4,0.5s0.4-0.2,0.5-0.4l0.9-15.4
	c0-0.2-0.2-0.4-0.4-0.5C15.6,5.2,15.4,5.3,15.4,5.6z"/>
</svg>
