<?xml version="1.0" encoding="utf-8"?>
<!-- Generator: Adobe Illustrator 20.0.0, SVG Export Plug-In . SVG Version: 6.00 Build 0)  -->
<svg version="1.1" id="users" xmlns="http://www.w3.org/2000/svg" xmlns:xlink="http://www.w3.org/1999/xlink" x="0px" y="0px"
	 viewBox="0 0 24 24" style="enable-background:new 0 0 24 24;" xml:space="preserve">
<style type="text/css">
	.st0{fill:#778D9E;}
</style>
<path class="st0" d="M0.9,16c0-0.4-0.1-1.2,1.9-1.8c0.6-0.3,1-0.6,1.1-1.1c0.2-0.8-0.3-1.5-0.3-1.6c0,0-0.5-0.6-0.5-2
	c0-1.6,0.4-2.3,1.7-2.3c1.3,0,1.7,0.6,1.7,2.3c0,1.3-0.5,1.9-0.5,1.9c-0.1,0.1-0.5,0.8-0.3,1.6c0.1,0.5,0.4,0.8,1,1.1
	C7,14,7.4,13.9,7.8,13.7c-0.2-0.1-0.5-0.2-0.8-0.3c-0.3-0.1-0.5-0.3-0.5-0.5c-0.1-0.3,0-0.7,0.1-0.8c0,0,0.7-0.8,0.7-2.5
	c0-0.8,0.1-3.1-2.6-3.1c-2.6,0-2.5,2.3-2.5,3.1c0,1.7,0.7,2.5,0.7,2.5c0.1,0.1,0.2,0.5,0.1,0.8c0,0.2-0.2,0.4-0.6,0.5
	C-0.1,14.2,0,15.5,0,16v0.9c0,0.4,0.3,0.7,0.7,0.7h1.1C1.8,17.3,2,17,2.2,16.7H0.9C0.9,16.7,0.9,16,0.9,16z M15.1,14.3
	c-0.5-0.2-0.9-0.5-1-0.9C14,12.8,14.6,12,14.6,12c0.1-0.1,1.2-0.9,1.2-3.3c0-1.9-0.5-4.4-3.9-4.4c-3.4,0-3.9,2.5-3.9,4.4
	c0,2.5,1.2,3.3,1.2,3.3c0,0,0.7,0.8,0.5,1.4c-0.1,0.4-0.5,0.7-1,0.9c-3.9,1.2-6.3,2.6-6.3,3.7V19c0,0.5,0.4,0.8,0.8,0.8h17.3
	c0.4,0,0.8-0.3,0.8-0.8v-0.9C21.4,16.9,19.1,15.5,15.1,14.3z M20.6,18.9l-17.1,0v-0.8c0-0.2,1.1-1.5,5.7-2.9l0,0
	c0.8-0.3,1.4-0.8,1.5-1.5c0.3-1.1-0.6-2.1-0.7-2.2c0,0-1-0.6-1-2.7c0-2.5,0.9-3.6,3-3.6s3,1,3,3.6c0,2.1-1,2.7-1,2.8
	c0,0-0.9,1.1-0.7,2.2c0.2,0.6,0.7,1.1,1.5,1.5l0,0c4.6,1.4,5.7,2.7,5.7,2.9C20.6,18.1,20.6,18.9,20.6,18.9z M21.6,13.4
	c-0.3-0.1-0.5-0.3-0.6-0.5c-0.1-0.3,0.1-0.7,0.1-0.8c0,0,0.7-0.8,0.7-2.5c0-0.8,0.1-3.1-2.5-3.1s-2.6,2.3-2.6,3.1
	c0,1.7,0.7,2.5,0.7,2.5c0.1,0.1,0.2,0.5,0.1,0.8c0,0.2-0.2,0.4-0.5,0.5c-0.3,0.1-0.6,0.2-0.8,0.3c0.4,0.1,0.8,0.3,1.2,0.4
	c0.5-0.3,0.9-0.6,1-1.1c0.2-0.8-0.2-1.5-0.3-1.6c0,0-0.5-0.6-0.5-1.9c0-1.6,0.4-2.3,1.7-2.3c1.3,0,1.7,0.6,1.7,2.3
	c0,1.3-0.4,1.9-0.5,2c-0.1,0.1-0.5,0.8-0.3,1.6c0.1,0.5,0.5,0.9,1.1,1.1c2,0.7,1.9,1.4,1.9,1.8v0.7h-1.3c0.2,0.3,0.3,0.6,0.4,0.9
	h1.1c0.3,0,0.7-0.2,0.7-0.7V16C24,15.5,24.1,14.2,21.6,13.4z"/>
</svg>
